<svg width="200" height="200" xmlns="http://www.w3.org/2000/svg">
  <defs>
    <linearGradient id="exerciseGradient" x1="0%" y1="0%" x2="100%" y2="100%">
      <stop offset="0%" style="stop-color:#3498db;stop-opacity:1" />
      <stop offset="100%" style="stop-color:#2980b9;stop-opacity:1" />
    </linearGradient>
  </defs>
  <circle cx="100" cy="100" r="90" fill="white" stroke="#ddd" stroke-width="2" />
  <g transform="translate(60, 55) scale(0.4)">
    <!-- Person running -->
    <circle cx="100" cy="70" r="30" fill="url(#exerciseGradient)"/>
    <path d="M100,100 C100,100 90,140 90,140 C90,140 60,180 60,180 C60,180 75,190 75,190 C75,190 110,150 110,150 C110,150 115,100 115,100 Z" fill="url(#exerciseGradient)"/>
    <path d="M100,100 C100,100 110,130 110,130 C110,130 150,140 150,140 C150,140 155,125 155,125 C155,125 120,110 120,110 C120,110 110,90 110,90 Z" fill="url(#exerciseGradient)"/>
    <path d="M90,140 C90,140 60,120 60,120 C60,120 50,130 50,130 C50,130 85,160 85,160 Z" fill="url(#exerciseGradient)"/>
    <path d="M115,100 C115,100 150,100 150,100 C150,100 155,85 155,85 C155,85 120,85 120,85 C120,85 115,100 115,100 Z" fill="url(#exerciseGradient)"/>
  </g>
  <text x="100" y="165" text-anchor="middle" font-family="Arial" font-size="14" fill="#333" font-weight="bold">Atividade Física</text>
</svg>
