<svg xmlns="http://www.w3.org/2000/svg" viewBox="0 0 640 512">
  <path d="M175 390.4c-9.6 14.6-21.1 28.2-36.3 34.7c-23.9 10.2-51.9 10.2-75.8 0c-23.9-10.2-39.9-30.2-39.9-53.1c0-35.3 35.8-64 80-64c27.5 0 51.9 11.8 67.5 30l-54 30.1c3.4-1.2 7-2.1 10.5-2.7c11.7-2 24.1 .3 34 6.6c10.7 6.8 18.4 17.6 21.5 20.9zM640 304c0-38.5-28.1-70.7-64.9-77.1c-3.3 36.7-29.3 68.4-67.7 79c2.4 15.7 3.9 31.8 3.9 48.1c0 33.7-7.1 65.5-18 92.9c31.1-7.5 55.9-18.9 73.4-33.7C595.5 387.8 640 334.9 640 304zm-64-16a16 16 0 1 0-32 0 16 16 0 1 0 32 0zm-224 0c-11.6 0-21.3 8.3-23.5 19.4c1.8-.3 3.7-.5
   5.5-.8c24.7-4.3 52-4.3 76.7 0c1.9 .3 3.7 .5 5.5 .8c-2.3-11.2-11.9-19.4-23.5-19.4H352zm240 0a48 48 0 1 1 0 96 48 48 0 1 1 0-96zM256 0C292.7 0 329 4.7 363 13.5l-16.7 56.1c-9.7-2.6-19.6-4.4-29.4-5.6C311.4 32.5 277.7 8 240 8c-37.7 0-71.4 24.5-76.9 56c-9.8 1.2-19.7 3-29.4 5.6L117.1 13.5C151 4.7 187.3 0 224 0h32zM32 304c0 30.9 44.5 83.8 73.3 109.3c17.5 14.8 42.3 26.2 73.4 33.7c-10.9-27.5-18-59.2-18-92.9c0-16.3 1.4-32.3 3.9-48.1c-38.4-10.6-64.4-42.4-67.7-79C60.1 233.3 32 265.5 32 304zm16 0a16 16 0 1 1 32 0 16 16 0 1 1-32 0zm48-16a48 48 0
 1 0 0 96 48 48 0 1 0 0-96z"/>
</svg>
