<svg xmlns="http://www.w3.org/2000/svg" viewBox="0 0 576 512">
  <path d="M161.3 118.2c17.8-4.8 34.6-12.9 49.7-23.8c18.7-13.5 39.6-23.2 61.6-28.8c38.5-9.6 78.8-1.6 110.7 21.1c83.1 59.3 83.1 197.4 0 256.6c-31.8 22.7-72.1 30.7-110.7 21.1c-21.9-5.5-42.9-15.2-61.6-28.8c-15.1-10.9-31.9-19-49.7-23.8C109.3 299.4 15 312 15 312c-8.3 0-15-6.7-15-15v-82c0-8.3 6.7-15 15-15s0 0 0 0s94.3 12.6 146.3-81.8zM212.2 164.4c-1.4 9.7 6.1 18.5 15.8 19.9s18.5-6.1 19.9-15.8c6.1-42.3 36.4-74.2 74.3-81.7c9.8-1.9 16.1-11.3 14.2-21s-11.3-16.1-21-14.2c-49.8 9.7-90.5 50.5-103.2 112.8zm293.9 144.3C551.7 263.6 576 217.8 576 169c0-73.7-59.8-133.6-133.5-133.6c-30.8 0-59.3 10.4-81.9 28c-3.2 2.5-6.2 5.1-9.1 7.9c-10.6 10.3-19.9 22-27.8 34.8c-3.5 5.7-1.7 13.1 4 16.6s13.1 1.7 16.6-4c6.5-10.5 14.2-20.1 23.1-28.8c2.5-2.4 5-4.6 7.6-6.7c18.5-14.5 41.7-23.1 67.5-23.1c59.8 0 108.5 48.6 108.5 108.6c0 59.9-48.7 108.6-108.5 108.6c-16.4 0-32.5-3.7-47.4-10.9c-64-30.9-51.8-10.5-51.8-176.8c0-7.4-6-13.4-13.4-13.4s-13.4 6-13.4 13.4c0 185.2-7.9 148.8 65.1 184.5c18.3 9 37.9 13.5 60.9 13.5c73.6 0 133.5-59.9 133.5-133.6c0-26.4-7.7-51.7-21.8-73.2z"/>
</svg>
