<svg xmlns="http://www.w3.org/2000/svg" viewBox="0 0 512 512">
  <defs>
    <radialGradient id="rgrad" cx="50%" cy="50%" r="50%" fx="50%" fy="50%">
      <stop offset="0%" style="stop-color:#e74c3c;stop-opacity:1" />
      <stop offset="100%" style="stop-color:#c0392b;stop-opacity:1" />
    </radialGradient>
  </defs>
  <path fill="url(#rgrad)" d="M228.3 469.1L47.6 300.4c-4.2-3.9-8.2-8.1-11.9-12.4h87.4L212.9 168c2.5-3.9 7-6 11.8-5.2s8.6 4.3 9.9 9l19.6 69L96.4 96.8c11.9-13.1 25.4-24.9 40.1-34.9L228.3 42.9c9.8-6.5 22.4-6.5 32.2 0l266.5 177.2c9.8 6.5 15.7 17.7 15.7 29.5v191.1c0 11.8-5.9 22.9-15.7 29.5L266.5 469.1c-9.8 6.5-22.4 6.5-32.2 0zM256 159.1c-11.8 0-21.3 9.6-21.3 21.3c0 11.8 9.6 21.3 21.3 21.3s21.3-9.6 21.3-21.3c0-11.8-9.6-21.3-21.3-21.3zm0 74.7c-11.8 0-21.3 9.6-21.3 21.3v106.7c0 11.8 9.6 21.3 21.3 21.3s21.3-9.6 21.3-21.3V255.1c0-11.8-9.6-21.3-21.3-21.3z"/>
</svg>
